<svg width="304" height="30" viewBox="0 0 304 30" fill="none" xmlns="http://www.w3.org/2000/svg">
<path opacity="0.939" fill-rule="evenodd" clip-rule="evenodd" d="M186.526 0.454225C193.33 0.329109 197.632 3.70012 199.433 10.5673C199.97 13.3872 199.992 16.2116 199.498 19.0405C198.877 22.2494 197.371 24.8802 194.979 26.9328C192.161 28.9875 189.04 29.785 185.616 29.3244C181.17 28.7053 178.016 26.2565 176.155 21.9787C175.035 19.033 174.644 15.9808 174.985 12.8223C175.288 9.19126 176.664 6.10492 179.114 3.56332C181.258 1.67395 183.729 0.637559 186.526 0.454225ZM186.136 1.4792C188.616 1.25665 190.957 1.74638 193.159 2.94834C195.782 4.64303 197.484 7.06881 198.263 10.2257C198.947 13.1988 198.991 16.1826 198.393 19.1771C196.913 25.1389 193.239 28.2366 187.372 28.4703C181.764 28.2639 178.134 25.3482 176.481 19.7238C175.96 17.6382 175.787 15.5199 175.96 13.3689C176.168 9.74899 177.501 6.68547 179.959 4.17831C181.762 2.63175 183.822 1.7321 186.136 1.4792Z" fill="#040707"/>
<path opacity="0.996" fill-rule="evenodd" clip-rule="evenodd" d="M0.5 0.795883C5.70178 0.784472 10.9035 0.795883 16.1051 0.830049C18.7604 0.978193 21.1879 1.821 23.3876 3.35833C26.2791 5.7442 27.9371 8.87605 28.3617 12.7539C28.8005 16.2509 28.237 19.5536 26.6711 22.6621C24.5158 26.4242 21.3406 28.5311 17.1455 28.9827C16.6699 29.0422 16.1931 29.088 15.715 29.1194C10.6434 29.1536 5.57174 29.1652 0.5 29.1536C0.5 19.701 0.5 10.2484 0.5 0.795883ZM9.14785 8.58571C11.0352 8.5568 12.9209 8.59097 14.8047 8.6882C17.1656 9.18771 18.737 10.634 19.5188 13.0273C20.256 16.1711 19.3565 18.6425 16.8204 20.4413C16.1944 20.8271 15.5225 21.0776 14.8047 21.1929C12.9207 21.2888 11.035 21.323 9.14785 21.2954C9.14785 17.0588 9.14785 12.8223 9.14785 8.58571Z" fill="#040707"/>
<path opacity="0.996" fill-rule="evenodd" clip-rule="evenodd" d="M29.7596 0.795883C38.3858 0.795883 47.0118 0.795883 55.6382 0.795883C55.6382 3.36974 55.6382 5.94352 55.6382 8.51737C52.7772 8.51737 49.9163 8.51737 47.0554 8.51737C47.0554 15.3961 47.0554 22.2748 47.0554 29.1536C44.1508 29.1536 41.247 29.1536 38.3425 29.1536C38.3425 22.2748 38.3425 15.3961 38.3425 8.51737C35.4815 8.51737 32.6206 8.51737 29.7596 8.51737C29.7596 5.94352 29.7596 3.36974 29.7596 0.795883Z" fill="#040707"/>
<path opacity="0.991" fill-rule="evenodd" clip-rule="evenodd" d="M64.7412 0.795885C67.5963 0.773335 70.4462 0.79609 73.2915 0.864216C77.0491 10.2883 80.7879 19.7181 84.5077 29.1536C81.6747 29.1761 78.8463 29.1536 76.0224 29.0852C72.2421 19.6613 68.4819 10.2315 64.7412 0.795885Z" fill="#040707"/>
<path opacity="0.991" fill-rule="evenodd" clip-rule="evenodd" d="M87.6938 0.795883C90.5762 0.795883 93.4592 0.795883 96.3416 0.795883C96.3416 7.67464 96.3416 14.5533 96.3416 21.4321C100.893 21.4321 105.445 21.4321 109.996 21.4321C109.996 24.0059 109.996 26.5797 109.996 29.1536C102.562 29.1536 95.1277 29.1536 87.6938 29.1536C87.6938 19.701 87.6938 10.2484 87.6938 0.795883Z" fill="#040707"/>
<path opacity="0.992" fill-rule="evenodd" clip-rule="evenodd" d="M114.027 0.795883C121.44 0.795883 128.852 0.795883 136.265 0.795883C136.265 3.36974 136.265 5.94352 136.265 8.51737C131.692 8.51737 127.118 8.51737 122.545 8.51737C122.545 9.5196 122.545 10.5218 122.545 11.524C127.118 11.524 131.692 11.524 136.265 11.524C136.265 13.665 136.265 15.8061 136.265 17.9472C131.692 17.9472 127.118 17.9472 122.545 17.9472C122.545 19.1088 122.545 20.2704 122.545 21.4321C127.118 21.4321 131.692 21.4321 136.265 21.4321C136.265 24.0059 136.265 26.5797 136.265 29.1536C128.852 29.1536 121.44 29.1536 114.027 29.1536C114.027 19.701 114.027 10.2484 114.027 0.795883Z" fill="#040707"/>
<path opacity="0.957" fill-rule="evenodd" clip-rule="evenodd" d="M142.637 0.795878C143.121 0.66878 143.479 0.828199 143.71 1.2742C147.638 8.27807 151.583 15.2707 155.544 22.2521C159.38 15.2366 163.216 8.22129 167.052 1.20587C167.129 1.03504 167.248 0.909787 167.41 0.830043C167.626 0.796014 167.842 0.784603 168.06 0.795878C168.06 10.2484 168.06 19.701 168.06 29.1536C167.757 29.1536 167.454 29.1536 167.15 29.1536C167.161 20.4754 167.15 11.7973 167.117 3.11916C163.42 9.94612 159.681 16.7451 155.901 23.5162C155.458 23.7028 155.123 23.5776 154.893 23.1404C151.122 16.4439 147.351 9.74734 143.58 3.05083C143.547 11.7517 143.536 20.4526 143.547 29.1536C143.244 29.1536 142.941 29.1536 142.637 29.1536C142.637 19.701 142.637 10.2484 142.637 0.795878Z" fill="#040707"/>
<path opacity="0.944" fill-rule="evenodd" clip-rule="evenodd" d="M206.683 0.795888C210.564 0.764455 214.443 0.798621 218.322 0.898385C223.373 1.65222 226.679 4.57908 228.238 9.67902C229.148 13.2095 229.148 16.7399 228.238 20.2704C226.63 25.3924 223.281 28.3192 218.192 29.0511C214.357 29.1502 210.521 29.1843 206.683 29.1536C206.683 19.701 206.683 10.2484 206.683 0.795888ZM207.723 1.75253C211.127 1.72247 214.53 1.75663 217.932 1.85503C223.081 2.57477 226.257 5.59278 227.457 10.909C228.08 13.9841 227.993 17.0362 227.197 20.0655C225.682 24.8236 222.55 27.4999 217.802 28.0944C214.443 28.1908 211.084 28.2249 207.723 28.1969C207.723 19.3821 207.723 10.5673 207.723 1.75253Z" fill="#040707"/>
<path opacity="0.939" fill-rule="evenodd" clip-rule="evenodd" d="M235.748 0.795883C241.079 0.795883 246.411 0.795883 251.743 0.795883C251.743 1.13754 251.743 1.4792 251.743 1.82086C246.758 1.82086 241.773 1.82086 236.788 1.82086C236.788 5.96634 236.788 10.1118 236.788 14.2572C241.036 14.2572 245.284 14.2572 249.532 14.2572C249.532 14.5989 249.532 14.9406 249.532 15.2822C245.284 15.2822 241.036 15.2822 236.788 15.2822C236.788 19.5644 236.788 23.8464 236.788 28.1286C241.795 28.1286 246.801 28.1286 251.808 28.1286C251.808 28.4703 251.808 28.8119 251.808 29.1536C246.455 29.1536 241.101 29.1536 235.748 29.1536C235.748 19.701 235.748 10.2484 235.748 0.795883Z" fill="#040707"/>
<path opacity="0.959" fill-rule="evenodd" clip-rule="evenodd" d="M258.7 0.795883C261.28 0.784472 263.858 0.795883 266.438 0.830049C268.413 0.899611 270.212 1.5146 271.835 2.67501C273.307 4.09166 274 5.85688 273.915 7.97072C273.851 11.2616 272.377 13.5508 269.494 14.8381C268.344 15.3167 267.152 15.6129 265.918 15.7264C269.46 20.1893 273.015 24.6423 276.581 29.0852C276.193 29.1645 275.803 29.1761 275.411 29.1194C275.242 29.0593 275.101 28.9568 274.988 28.8119C271.642 24.544 268.272 20.2961 264.877 16.068C264.706 15.9214 264.511 15.8303 264.292 15.7947C262.754 15.7605 261.215 15.7491 259.676 15.7605C259.676 20.2249 259.676 24.6893 259.676 29.1536C259.35 29.1536 259.025 29.1536 258.7 29.1536C258.7 19.701 258.7 10.2484 258.7 0.795883ZM259.676 1.75253C262.039 1.72506 264.402 1.75922 266.763 1.85503C271.583 2.31989 273.544 5.04181 272.647 10.0207C272.02 11.9102 270.817 13.2199 269.039 13.9498C268.035 14.3657 266.995 14.6163 265.918 14.7014C263.837 14.7356 261.756 14.747 259.676 14.7356C259.676 10.4079 259.676 6.08018 259.676 1.75253Z" fill="#040707"/>
<path opacity="0.922" fill-rule="evenodd" clip-rule="evenodd" d="M283.408 0.795885C283.648 0.78461 283.886 0.795953 284.124 0.830051C284.217 0.861825 284.293 0.918814 284.351 1.00088C290.373 9.67546 296.42 18.3308 302.492 26.967C302.525 18.2433 302.536 9.5196 302.525 0.795885C302.85 0.795885 303.175 0.795885 303.5 0.795885C303.5 10.2484 303.5 19.701 303.5 29.1536C303.157 29.2171 302.865 29.1262 302.622 28.8802C296.569 20.1899 290.501 11.5118 284.416 2.84584C284.384 11.6151 284.373 20.3843 284.384 29.1536C284.059 29.1536 283.733 29.1536 283.408 29.1536C283.408 19.701 283.408 10.2484 283.408 0.795885Z" fill="#040707"/>
<path opacity="0.989" fill-rule="evenodd" clip-rule="evenodd" d="M63.1157 1.6842C63.2425 1.81082 63.34 1.97023 63.4083 2.16252C64.7718 5.61881 66.1483 9.06956 67.5371 12.5148C66.4506 15.518 65.3452 18.5133 64.221 21.5004C66.5403 21.546 68.859 21.5915 71.1783 21.6371C72.1575 24.1277 73.1543 26.6104 74.1693 29.0852C66.8655 29.1536 59.5616 29.1761 52.2571 29.1536C55.8768 19.9971 59.4959 10.8407 63.1157 1.6842Z" fill="#040707"/>
</svg>
